<svg viewBox="0 0 24 20" version="1.1" xmlns="http://www.w3.org/2000/svg" xmlns:xlink="http://www.w3.org/1999/xlink">
    <defs>
        <linearGradient x1="50%" y1="0%" x2="50%" y2="100%" id="linearGradient-1">
            <stop stop-color="#7087CC" offset="0%"></stop>
            <stop stop-color="#35467A" offset="100%"></stop>
        </linearGradient>
    </defs>
    <g id="Agent-Assitant" stroke="none" stroke-width="1" fill="none" fill-rule="evenodd">
        <g id="00-Agent-Assistant--Copy" transform="translate(-1380.000000, -78.000000)" fill="url(#linearGradient-1)">
            <g id="Group-13-Copy" transform="translate(1372.000000, 68.000000)">
                <path d="M31.7123446,27.2314948 L21.305243,10.7772298 C21.0256223,10.3352179 20.6058506,10.0817272 20.1651329,10.0173052 C19.573025,9.92842832 18.9429418,10.181919 18.5662542,10.7772298 L8.31292694,26.9902315 C7.84581389,27.7286212 7.93317408,28.6146524 8.36656916,29.2335055 C8.54435481,29.4882737 8.78089145,29.6979647 9.06170422,29.8321012 C9.28376598,29.9390454 9.53307459,30 9.80230744,30 C10.101001,30 10.3893066,29.9211606 10.644916,29.7757091 C10.9015472,29.6302576 11.1244605,29.4183767 11.2916879,29.1533885 L18.4516472,17.8326294 C19.1627897,16.7075249 20.7088777,16.7075249 21.4200203,17.8326294 L22.3455615,19.2968164 L22.6590704,19.7917529 L25.7010101,24.6005936 C26.1132888,25.2543039 25.6768285,26.1357726 24.9404826,26.1357726 C24.7901141,26.1357726 24.6438326,26.0963529 24.5145804,26.0231709 C24.3851579,25.9498064 24.2715726,25.8437747 24.1852342,25.7109156 L22.6263742,23.2862379 C22.5853337,23.2223634 22.5413981,23.1626863 22.4949082,23.1068417 C22.4775384,23.0860369 22.4582953,23.0683345 22.4402442,23.0486246 C22.4099321,23.0154099 22.3801309,22.9812826 22.3479456,22.9511703 C22.3261481,22.930913 22.302818,22.9139406 22.2803393,22.8951432 C22.2496866,22.8694109 22.2197151,22.8425836 22.1877001,22.8195888 C22.1635185,22.8020689 22.1378043,22.7876515 22.1129416,22.7717741 C22.0809265,22.7511518 22.0495926,22.7297994 22.0165559,22.711732 C21.9901605,22.6973146 21.9627433,22.6861822 21.9358371,22.6732248 C21.9029706,22.6577124 21.870615,22.6412875 21.8370673,22.6281476 C21.8081175,22.6168327 21.7786569,22.6084378 21.7493665,22.5989478 C21.7168406,22.5883629 21.684485,22.5768655 21.6516185,22.5684706 C21.6192628,22.5602581 21.5865666,22.5549657 21.5538704,22.5489432 C21.5235583,22.5432857 21.4934165,22.5365333 21.4629341,22.5327008 C21.42564,22.5279559 21.3881756,22.5263134 21.3505409,22.5243059 C21.3297651,22.5232109 21.3091597,22.5199259 21.2885543,22.5195609 L21.2739091,22.5202909 C21.2304845,22.5201084 21.1872301,22.5232109 21.1439757,22.5264959 C21.1204753,22.5283208 21.0969749,22.5288683 21.0736448,22.5316058 C21.0326043,22.5367158 20.9920746,22.5451107 20.9515449,22.5535057 C20.9265119,22.5586156 20.9013085,22.5622656 20.8764458,22.5684706 C20.8376191,22.578508 20.7996438,22.5918304 20.7614982,22.6047878 C20.735784,22.6135477 20.7098995,22.6206652 20.6845259,22.6307026 C20.647402,22.645485 20.6116406,22.6639174 20.5753682,22.6814373 C20.5503352,22.6936647 20.5247913,22.7042496 20.5002691,22.717937 C20.464167,22.7378294 20.4299382,22.7617367 20.3951985,22.7847315 C20.3720386,22.8000614 20.3481977,22.8133838 20.3255487,22.8299912 C20.2902981,22.8560885 20.257091,22.8862008 20.2235434,22.9155831 C20.2032785,22.933103 20.1821622,22.9486153 20.1627488,22.9672302 C20.1266468,23.001905 20.0932694,23.0409597 20.0595514,23.0794669 C20.044736,23.0966218 20.0285581,23.1115867 20.0142535,23.1294716 C19.9672527,23.1876886 19.9231469,23.2499207 19.8821064,23.3165327 L17.4629274,27.2506571 C16.7371396,28.4297812 17.526106,30 18.8440017,30 L30.3418284,30 C31.6692605,30 32.4570348,28.4095239 31.7123446,27.2314948" id="agent-assit-logo"></path>
            </g>
        </g>
    </g>
</svg>