<svg width="20" height="20" viewBox="0 0 20 20" fill="none" xmlns="http://www.w3.org/2000/svg">
<path id="Vector" d="M10 15.5C10.8833 15.5 11.721 15.3083 12.513 14.925C13.305 14.5417 13.9423 13.9833 14.425 13.25C14.6083 12.9667 14.6333 12.6873 14.5 12.412C14.3667 12.1367 14.15 11.9993 13.85 12C13.7167 12 13.596 12.0293 13.488 12.088C13.38 12.1467 13.2923 12.234 13.225 12.35C12.8417 12.8667 12.3667 13.271 11.8 13.563C11.2333 13.855 10.6333 14.0007 10 14C9.36667 14 8.76667 13.854 8.2 13.562C7.63333 13.27 7.15833 12.866 6.775 12.35C6.69167 12.2333 6.59567 12.146 6.487 12.088C6.37833 12.03 6.258 12.0007 6.126 12C5.826 12 5.60933 12.1333 5.476 12.4C5.34267 12.6667 5.36767 12.9333 5.551 13.2C6.03433 13.95 6.672 14.521 7.464 14.913C8.256 15.305 9.10133 15.5007 10 15.5ZM13.5 9C13.9167 9 14.271 8.854 14.563 8.562C14.855 8.27 15.0007 7.916 15 7.5C15 7.08333 14.854 6.729 14.562 6.437C14.27 6.145 13.916 5.99933 13.5 6C13.0833 6 12.729 6.146 12.437 6.438C12.145 6.73 11.9993 7.084 12 7.5C12 7.91667 12.146 8.271 12.438 8.563C12.73 8.855 13.084 9.00067 13.5 9ZM6.5 9C6.91667 9 7.271 8.854 7.563 8.562C7.855 8.27 8.00067 7.916 8 7.5C8 7.08333 7.854 6.729 7.562 6.437C7.27 6.145 6.916 5.99933 6.5 6C6.08333 6 5.729 6.146 5.437 6.438C5.145 6.73 4.99933 7.084 5 7.5C5 7.91667 5.146 8.271 5.438 8.563C5.73 8.855 6.084 9.00067 6.5 9ZM10 20C8.61667 20 7.31667 19.7373 6.1 19.212C4.88333 18.6867 3.825 17.9743 2.925 17.075C2.025 16.175 1.31267 15.1167 0.788 13.9C0.263333 12.6833 0.000666667 11.3833 0 10C0 8.61667 0.262667 7.31667 0.788 6.1C1.31333 4.88333 2.02567 3.825 2.925 2.925C3.825 2.025 4.88333 1.31267 6.1 0.788C7.31667 0.263333 8.61667 0.000666667 10 0C11.3833 0 12.6833 0.262667 13.9 0.788C15.1167 1.31333 16.175 2.02567 17.075 2.925C17.975 3.825 18.6877 4.88333 19.213 6.1C19.7383 7.31667 20.0007 8.61667 20 10C20 11.3833 19.7373 12.6833 19.212 13.9C18.6867 15.1167 17.9743 16.175 17.075 17.075C16.175 17.975 15.1167 18.6877 13.9 19.213C12.6833 19.7383 11.3833 20.0007 10 20ZM10 18C12.2333 18 14.125 17.225 15.675 15.675C17.225 14.125 18 12.2333 18 10C18 7.76667 17.225 5.875 15.675 4.325C14.125 2.775 12.2333 2 10 2C7.76667 2 5.875 2.775 4.325 4.325C2.775 5.875 2 7.76667 2 10C2 12.2333 2.775 14.125 4.325 15.675C5.875 17.225 7.76667 18 10 18Z" fill="white"/>
</svg>
