<svg width="24" height="24" viewBox="0 0 24 24" fill="none" xmlns="http://www.w3.org/2000/svg">
<g id="material-symbols:sentiment-neutral-outline-rounded">
<path id="Vector" d="M15.5 11C15.9167 11 16.271 10.854 16.563 10.562C16.855 10.27 17.0007 9.916 17 9.5C17 9.08333 16.854 8.729 16.562 8.437C16.27 8.145 15.916 7.99933 15.5 8C15.0833 8 14.729 8.146 14.437 8.438C14.145 8.73 13.9993 9.084 14 9.5C14 9.91667 14.146 10.271 14.438 10.563C14.73 10.855 15.084 11.0007 15.5 11ZM8.5 11C8.91667 11 9.271 10.854 9.563 10.562C9.855 10.27 10.0007 9.916 10 9.5C10 9.08333 9.854 8.729 9.562 8.437C9.27 8.145 8.916 7.99933 8.5 8C8.08333 8 7.729 8.146 7.437 8.438C7.145 8.73 6.99933 9.084 7 9.5C7 9.91667 7.146 10.271 7.438 10.563C7.73 10.855 8.084 11.0007 8.5 11ZM9.75 15.5H14.25C14.4667 15.5 14.6457 15.429 14.787 15.287C14.9283 15.145 14.9993 14.966 15 14.75C15 14.5333 14.929 14.3543 14.787 14.213C14.645 14.0717 14.466 14.0007 14.25 14H9.75C9.53333 14 9.35433 14.071 9.213 14.213C9.07167 14.355 9.00067 14.534 9 14.75C9 14.9667 9.071 15.1457 9.213 15.287C9.355 15.4283 9.534 15.4993 9.75 15.5ZM12 22C10.6167 22 9.31667 21.7373 8.1 21.212C6.88333 20.6867 5.825 19.9743 4.925 19.075C4.025 18.175 3.31267 17.1167 2.788 15.9C2.26333 14.6833 2.00067 13.3833 2 12C2 10.6167 2.26267 9.31667 2.788 8.1C3.31333 6.88333 4.02567 5.825 4.925 4.925C5.825 4.025 6.88333 3.31267 8.1 2.788C9.31667 2.26333 10.6167 2.00067 12 2C13.3833 2 14.6833 2.26267 15.9 2.788C17.1167 3.31333 18.175 4.02567 19.075 4.925C19.975 5.825 20.6877 6.88333 21.213 8.1C21.7383 9.31667 22.0007 10.6167 22 12C22 13.3833 21.7373 14.6833 21.212 15.9C20.6867 17.1167 19.9743 18.175 19.075 19.075C18.175 19.975 17.1167 20.6877 15.9 21.213C14.6833 21.7383 13.3833 22.0007 12 22ZM12 20C14.2333 20 16.125 19.225 17.675 17.675C19.225 16.125 20 14.2333 20 12C20 9.76667 19.225 7.875 17.675 6.325C16.125 4.775 14.2333 4 12 4C9.76667 4 7.875 4.775 6.325 6.325C4.775 7.875 4 9.76667 4 12C4 14.2333 4.775 16.125 6.325 17.675C7.875 19.225 9.76667 20 12 20Z" fill="#111111"/>
</g>
</svg>
