<svg xmlns="http://www.w3.org/2000/svg"  color="white" fill="currentColor" viewBox="0 0 14 12"><path fill-rule="evenodd" d="M9.487 1h.69c.538.816.825 1.772.823 2.75a4.977 4.977 0 0 1-.823 2.75h-.099c-.537 0-1.023.297-1.354.72a6.027 6.027 0 0 1-1.907 1.6c-.482.256-.9.637-1.102 1.143a2.999 2.999 0 0 0-.215 1.115v.422a.5.5 0 0 1-.5.5 1.5 1.5 0 0 1-1.5-1.5c0-.768.173-1.495.482-2.145.178-.372-.071-.855-.483-.855H1.415C.73 7.5.118 7.037.045 6.357a7.965 7.965 0 0 1 1.72-5.87c.26-.322.659-.487 1.071-.487h2.677a3 3 0 0 1 .949.153l2.076.694A3 3 0 0 0 9.487 1Zm3.959 5.682A7.988 7.988 0 0 0 14 3.75c0-.813-.121-1.599-.347-2.338C13.48.845 12.931.5 12.338.5h-.605c-.296 0-.48.332-.348.599.394.8.616 1.7.616 2.651a5.973 5.973 0 0 1-.868 3.11c-.164.27.018.64.333.64h.702c.555 0 1.075-.302 1.279-.818h-.001Z"/></svg>